# xmcd
#
# Track frame offsets: 
#        187
#        9460
#        20485
#        34057
#        44705
#        57057
#        67240
#        77422
#        96772
#        114957
#        124752
#
# Disc length: 1837 seconds
#
# Revision: 1
# Processed by: cddbd v1.5.1PL0 Copyright (c) Steve Scherf et al.
# Submitted via: ExactAudioCopy v0.95a4
#
DISCID=89072b0b
DTITLE=Various Artist - 60's Hits Country, volume 1 (Great Records of the Dec
DTITLE=ade)
DYEAR=1900
DGENRE=Country
TTITLE0=Buck Owens - Love's Gonna Live Here
TTITLE1=Faron Young - Hello Walls
TTITLE2=Glen Campbell - Gentle On My Mind
TTITLE3=Ferlin Husky - Wings Of A Dove
TTITLE4=Roy Clark - Tips Of My Fingers
TTITLE5=Willie Nelson - Touch Me
TTITLE6=Sonny James - You're The Only World I Know
TTITLE7=Bobbie Gentry - Ode To Billie Joe
TTITLE8=Bobby Goldsboro - Honey
TTITLE9=Hank Thompson - A Six Pack To Go
TTITLE10=Merle Haggard - Okie From Muskogee
EXTD=
EXTT0=
EXTT1=
EXTT2=
EXTT3=
EXTT4=
EXTT5=
EXTT6=
EXTT7=
EXTT8=
EXTT9=
EXTT10=
PLAYORDER=
